<?xml version="1.0" encoding="UTF-8" standalone="no"?>
<svg
   xmlns:dc="http://purl.org/dc/elements/1.1/"
   xmlns:cc="http://creativecommons.org/ns#"
   xmlns:rdf="http://www.w3.org/1999/02/22-rdf-syntax-ns#"
   xmlns:svg="http://www.w3.org/2000/svg"
   xmlns="http://www.w3.org/2000/svg"
   viewBox="0 0 365.57333 62.466667"
   height="62.466667"
   width="365.57333"
   xml:space="preserve"
   id="svg2"
   version="1.1"><metadata
     id="metadata8"><rdf:RDF><cc:Work
         rdf:about=""><dc:format>image/svg+xml</dc:format><dc:type
           rdf:resource="http://purl.org/dc/dcmitype/StillImage" /></cc:Work></rdf:RDF></metadata><defs
     id="defs6" /><g
     transform="matrix(1.3333333,0,0,-1.3333333,0,62.466667)"
     id="g10"><g
       transform="scale(0.1)"
       id="g12"><path
         id="path14"
         style="fill:#231f20;fill-opacity:1;fill-rule:evenodd;stroke:none"
         d="M 0,150.762 V 468.535 H 52.5625 L 135.984,348.473 c 11.09,-16.399 19.289,-28.457 26.528,-40.993 h 0.965 c 6.75,12.063 14.945,26.04 26.039,42.926 l 76.191,118.129 h 53.047 V 13.2148 H 260.398 V 330.141 c 0,13.027 0,29.425 0.969,41.953 h -0.969 c -4.339,-9.16 -15.91,-27 -21.699,-35.684 L 176.02,239.004 h -26.528 l -69.4451,99.824 c -6.75,9.645 -15.4297,20.738 -21.6914,32.781 h -0.9727 c 0.4844,-12.527 0.4844,-28.925 0.4844,-40.015 V 150.762 H 0 v 0" /><path
         id="path16"
         style="fill:#231f20;fill-opacity:1;fill-rule:nonzero;stroke:none"
         d="M 340.352,199.836 H 473.938 V 331 h 58.343 V 13.2148 H 473.938 V 150.652 H 340.352 v 49.184 0" /><path
         id="path18"
         style="fill:#231f20;fill-opacity:1;fill-rule:evenodd;stroke:none"
         d="m 614.656,149.551 v 317.773 h 57.867 V 149.551 h -57.867 z m 78.602,186.617 h 133.578 v 131.156 h 58.355 V 149.551 H 826.836 V 286.98 H 693.258 v 49.188 0" /><path
         id="path20"
         style="fill:#231f20;fill-opacity:1;fill-rule:nonzero;stroke:none"
         d="m 1006.86,1.64063 h 20.93 V 51.9922 h 33.84 V 1.64063 h 20.93 V 115.762 h -20.93 V 69.3359 h -33.84 v 46.4261 h -20.93 V 1.64063 v 0" /><path
         id="path22"
         style="fill:#231f20;fill-opacity:1;fill-rule:evenodd;stroke:none"
         d="m 1146.14,38.1055 c 0,-15.0508 -4.41,-24.043 -16.51,-24.043 -7.85,0 -12.92,5.2344 -12.92,12.9102 0,12.2734 10.3,15.8789 27.63,15.8789 h 1.8 v -4.7461 z m -38.75,26.4843 c 3.93,3.2618 12.92,8.1641 23.05,8.1641 11.61,0 15.7,-7.6875 15.7,-16.0156 v -3.1172 h -4.09 c -25.66,0 -44.31,-5.7109 -44.31,-28.6016 0,-15.70309 12.1,-24.687469 25.19,-24.687469 12.09,0 18.47,5.878909 23.54,12.753869 h 0.33 c 0,-4.08199 0.16,-8.16402 1.14,-11.44527 h 18.31 c -0.48,3.28125 -1.14,8.82817 -1.14,14.88277 v 36.7774 c 0,21.0937 -6.05,33.8476 -32.21,33.8476 -12.92,0 -20.94,-3.5937 -26.65,-6.2109 l 1.14,-16.3477 v 0" /><path
         id="path24"
         style="fill:#231f20;fill-opacity:1;fill-rule:evenodd;stroke:none"
         d="m 1185.55,1.64063 h 20.27 V 50.6836 c 0,10.7812 3.77,19.7852 14.39,19.7852 8.34,0 11.62,-5.4024 11.62,-18.3204 V 1.64063 h 20.26 V 55.918 c 0,17.0039 -5.71,31.2304 -24.84,31.2304 -13.74,0 -19.46,-9.1523 -22.41,-14.2265 h 0.17 -0.49 c 0,4.2461 -0.49,8.6601 -0.66,12.9179 h -18.96 c 0.49,-3.7695 0.65,-8.6718 0.65,-13.9062 v -70.29297 0" /><path
         id="path26"
         style="fill:#231f20;fill-opacity:1;fill-rule:evenodd;stroke:none"
         d="m 1272.01,1.64063 h 20.27 V 50.6836 c 0,10.7812 3.76,19.7852 14.39,19.7852 8.33,0 11.61,-5.4024 11.61,-18.3204 V 1.64063 h 20.26 V 55.918 c 0,17.0039 -5.71,31.2304 -24.83,31.2304 -13.74,0 -19.47,-9.1523 -22.42,-14.2265 h 0.17 -0.49 c 0,4.2461 -0.49,8.6601 -0.65,12.9179 h -18.97 c 0.5,-3.7695 0.66,-8.6718 0.66,-13.9062 v -70.29297 0" /><path
         id="path28"
         style="fill:#231f20;fill-opacity:1;fill-rule:evenodd;stroke:none"
         d="m 1356.17,43.8281 c 0,-35.33201 19.93,-43.496069 37.12,-43.496069 17.16,0 36.94,8.164059 36.94,43.496069 0,34.336 -19.78,43.3203 -36.94,43.3203 -17.19,0 -37.12,-8.9843 -37.12,-43.3203 z m 20.92,0 c 0,14.0547 3.11,28.9258 16.2,28.9258 13.08,0 16.01,-14.8711 16.01,-28.9258 0,-14.0703 -2.93,-29.1211 -16.01,-29.1211 -13.09,0 -16.2,15.0508 -16.2,29.1211 v 0" /><path
         id="path30"
         style="fill:#231f20;fill-opacity:1;fill-rule:nonzero;stroke:none"
         d="m 1466.02,1.64063 h 23.86 l 25.84,84.19917 h -19.63 l -17.34,-64.9101 h -0.31 l -17.17,64.9101 h -20.93 l 25.68,-84.19917 v 0" /><path
         id="path32"
         style="fill:#231f20;fill-opacity:1;fill-rule:evenodd;stroke:none"
         d="m 1543.83,51.0156 c 0,11.1133 4.41,22.4024 15.05,22.4024 9.15,0 14.07,-7.5196 14.07,-22.4024 h -29.12 z m 43.49,-29.2695 c -3.77,-2.7734 -9.63,-6.543 -22.07,-6.543 -15.7,0 -21.42,8.6641 -21.42,23.0586 h 48.74 v 3.9258 c 0,34.3359 -15.54,44.9609 -33.69,44.9609 -21.42,0 -34.66,-19.4531 -34.66,-44.6289 0,-22.7343 11.76,-42.187469 38.91,-42.187469 12.1,0 20.92,3.593749 25.17,5.390629 l -0.98,16.02344 v 0" /><path
         id="path34"
         style="fill:#231f20;fill-opacity:1;fill-rule:nonzero;stroke:none"
         d="m 1610.55,1.64063 h 20.27 V 47.7344 c 0,15.7031 9.17,20.7734 17.5,20.7734 2.13,0 3.93,-0.332 5.72,-0.8125 v 18.9649 c -1.14,0.1562 -2.13,0.4882 -3.43,0.4882 -12.59,0 -18.97,-10.1367 -21.42,-16.6796 h -0.34 c 0,5.0781 -0.47,10.2929 -0.65,15.371 h -18.32 c 0.51,-3.7695 0.67,-8.6718 0.67,-13.9062 v -70.29297 0" /><path
         id="path36"
         style="fill:#231f20;fill-opacity:1;fill-rule:nonzero;stroke:none"
         d="m 1807.99,1.64063 h 18.96 V 115.762 h -30.25 l -24.04,-85.1956 h -0.33 l -23.54,85.1956 h -31.22 V 1.64063 h 18.96 V 96.7969 h 0.33 l 27.3,-95.15627 h 14.88 l 28.62,95.15627 h 0.33 v -95.15627 0" /><path
         id="path38"
         style="fill:#231f20;fill-opacity:1;fill-rule:evenodd;stroke:none"
         d="m 1863.75,51.0156 c 0,11.1133 4.39,22.4024 15.04,22.4024 9.14,0 14.05,-7.5196 14.05,-22.4024 h -29.09 z m 43.48,-29.2695 c -3.75,-2.7734 -9.64,-6.543 -22.07,-6.543 -15.71,0 -21.41,8.6641 -21.41,23.0586 h 48.7 v 3.9258 c 0,34.3359 -15.52,44.9609 -33.66,44.9609 -21.43,0 -34.67,-19.4531 -34.67,-44.6289 0,-22.7343 11.77,-42.187469 38.91,-42.187469 12.1,0 20.93,3.593749 25.17,5.390629 l -0.97,16.02344 v 0" /><path
         id="path40"
         style="fill:#231f20;fill-opacity:1;fill-rule:evenodd;stroke:none"
         d="m 1946.15,44.4727 c 0,16.8359 3.93,27.7929 15.21,27.7929 11.12,0 15.71,-11.9336 15.71,-28.2812 0,-15.8594 -4.1,-28.7813 -16.04,-28.7813 -11.77,0 -14.88,9.8164 -14.88,29.2696 z m 30.92,79.7853 V 73.7305 h -0.35 c -2.93,6.5508 -9.64,13.4179 -21.74,13.4179 -18.14,0 -29.1,-16.0156 -29.1,-43.4882 0,-23.3868 8.65,-43.328169 29.59,-43.328169 13.07,0 19.12,7.187499 22.4,14.374969 h 0.49 c 0,-5.70309 0.33,-10.62497 0.65,-13.06637 h 18.98 c -0.51,3.10546 -0.66,8.33984 -0.66,14.37497 V 124.258 h -20.26 v 0" /><path
         id="path42"
         style="fill:#231f20;fill-opacity:1;fill-rule:evenodd;stroke:none"
         d="m 2019.21,101.699 h 20.93 v 19.949 h -20.93 v -19.949 z m 0.32,-100.05837 h 20.27 V 85.8398 h -20.27 v -84.19917 0" /><path
         id="path44"
         style="fill:#231f20;fill-opacity:1;fill-rule:nonzero;stroke:none"
         d="m 2114.49,19.7852 c -2.77,-1.7969 -9.48,-4.0821 -14.39,-4.0821 -15.52,0 -23.05,12.1016 -23.05,27.793 0,17.9687 6.72,28.2812 22.07,28.2812 5.57,0 10.64,-2.2968 14.23,-4.082 l 1.14,16.0274 c -3.77,1.4531 -11.29,3.4257 -17.65,3.4257 -28.29,0 -40.72,-19.4531 -40.72,-43.4882 0,-23.875 11.77,-43.328169 39.56,-43.328169 8.18,0 15.22,1.640629 19.96,3.429689 l -1.15,16.02348 v 0" /><path
         id="path46"
         style="fill:#231f20;fill-opacity:1;fill-rule:evenodd;stroke:none"
         d="m 2173.65,38.1055 c 0,-15.0508 -4.4,-24.043 -16.51,-24.043 -7.85,0 -12.91,5.2344 -12.91,12.9102 0,12.2734 10.3,15.8789 27.63,15.8789 h 1.79 v -4.7461 z m -38.75,26.4843 c 3.93,3.2618 12.91,8.1641 23.05,8.1641 11.61,0 15.7,-7.6875 15.7,-16.0156 v -3.1172 h -4.09 c -25.67,0 -44.31,-5.7109 -44.31,-28.6016 0,-15.70309 12.11,-24.687469 25.18,-24.687469 12.11,0 18.48,5.878909 23.54,12.753869 h 0.33 c 0,-4.08199 0.16,-8.16402 1.16,-11.44527 h 18.29 c -0.49,3.28125 -1.13,8.82817 -1.13,14.88277 v 36.7774 c 0,21.0937 -6.06,33.8476 -32.21,33.8476 -12.91,0 -20.93,-3.5937 -26.66,-6.2109 l 1.15,-16.3477 v 0" /><path
         id="path48"
         style="fill:#231f20;fill-opacity:1;fill-rule:nonzero;stroke:none"
         d="m 2215.02,1.64063 h 20.27 V 124.258 h -20.27 V 1.64063 v 0" /><path
         id="path50"
         style="fill:#231f20;fill-opacity:1;fill-rule:nonzero;stroke:none"
         d="M 2301.6,5.06641 C 2307.34,1.64063 2316.15,0 2327.61,0 c 21.73,0 38.26,11.1211 38.26,34.3359 0,16.0352 -6.38,23.2227 -19.8,30.7305 l -12.26,6.8672 c -6.37,3.6133 -12.09,6.875 -12.09,15.3711 0,7.8516 5.41,13.4103 15.86,13.4103 9.65,0 16.35,-2.9416 21.41,-4.8947 l 0.99,17.4807 c -3.27,0.976 -11.77,4.101 -23.87,4.101 -19.13,0 -35.97,-10.636 -35.97,-31.0739 0,-14.7265 7.36,-23.7109 18.63,-29.9218 l 10.64,-5.8907 c 10.14,-5.5547 14.89,-9.1484 14.89,-17.332 0,-11.4375 -8.19,-16.5039 -17.35,-16.5039 -11.11,0 -20.1,4.4141 -24.2,7.0312 L 2301.6,5.06641 v 0" /><path
         id="path52"
         style="fill:#231f20;fill-opacity:1;fill-rule:nonzero;stroke:none"
         d="m 2439.13,19.7852 c -2.78,-1.7969 -9.49,-4.0821 -14.38,-4.0821 -15.54,0 -23.07,12.1016 -23.07,27.793 0,17.9687 6.7,28.2812 22.07,28.2812 5.56,0 10.63,-2.2968 14.24,-4.082 l 1.14,16.0274 c -3.78,1.4531 -11.29,3.4257 -17.67,3.4257 -28.28,0 -40.71,-19.4531 -40.71,-43.4882 0,-23.875 11.77,-43.328169 39.56,-43.328169 8.19,0 15.2,1.640629 19.94,3.429689 l -1.12,16.02348 v 0" /><path
         id="path54"
         style="fill:#231f20;fill-opacity:1;fill-rule:nonzero;stroke:none"
         d="m 2454.3,1.64063 h 20.27 V 50.6836 c 0,10.7812 3.75,19.7852 14.39,19.7852 8.33,0 11.61,-5.4024 11.61,-18.3204 V 1.64063 h 20.27 V 55.918 c 0,17.0039 -5.72,31.2304 -24.85,31.2304 -12.58,0 -17.33,-6.8671 -20.92,-12.0898 h -0.5 V 124.258 H 2454.3 V 1.64063 v 0" /><path
         id="path56"
         style="fill:#231f20;fill-opacity:1;fill-rule:evenodd;stroke:none"
         d="m 2538.46,43.8281 c 0,-35.33201 19.96,-43.496069 37.12,-43.496069 17.15,0 36.95,8.164059 36.95,43.496069 0,34.336 -19.8,43.3203 -36.95,43.3203 -17.16,0 -37.12,-8.9843 -37.12,-43.3203 z m 20.92,0 c 0,14.0547 3.12,28.9258 16.2,28.9258 13.07,0 16.01,-14.8711 16.01,-28.9258 0,-14.0703 -2.94,-29.1211 -16.01,-29.1211 -13.08,0 -16.2,15.0508 -16.2,29.1211 v 0" /><path
         id="path58"
         style="fill:#231f20;fill-opacity:1;fill-rule:evenodd;stroke:none"
         d="m 2627.87,43.8281 c 0,-35.33201 19.93,-43.496069 37.1,-43.496069 17.16,0 36.94,8.164059 36.94,43.496069 0,34.336 -19.78,43.3203 -36.94,43.3203 -17.17,0 -37.1,-8.9843 -37.1,-43.3203 z m 20.91,0 c 0,14.0547 3.11,28.9258 16.19,28.9258 13.08,0 16.03,-14.8711 16.03,-28.9258 0,-14.0703 -2.95,-29.1211 -16.03,-29.1211 -13.08,0 -16.19,15.0508 -16.19,29.1211 v 0" /><path
         id="path60"
         style="fill:#231f20;fill-opacity:1;fill-rule:nonzero;stroke:none"
         d="m 2721.52,1.64063 h 20.28 V 124.258 h -20.28 V 1.64063 v 0" /></g></g></svg>